<mxfile host="app.diagrams.net" modified="2024-05-12T21:11:59.256Z" agent="Mozilla/5.0 (Windows NT 10.0; Win64; x64) AppleWebKit/537.36 (KHTML, like Gecko) Chrome/124.0.0.0 Safari/537.36" etag="CFmfDGVWw2TxwiLNOWU6" version="24.4.0" type="device">
  <diagram name="1 oldal" id="EkbXveXJpsRsbPIowS7j">
    <mxGraphModel dx="3790" dy="2738" grid="1" gridSize="10" guides="1" tooltips="1" connect="1" arrows="1" fold="1" page="1" pageScale="1" pageWidth="827" pageHeight="1169" math="0" shadow="0">
      <root>
        <mxCell id="0" />
        <mxCell id="1" parent="0" />
        <mxCell id="eROQJaaDopx0TfyOYrIg-7" value="GameFrame" style="swimlane;fontStyle=1;align=center;verticalAlign=top;childLayout=stackLayout;horizontal=1;startSize=26;horizontalStack=0;resizeParent=1;resizeParentMax=0;resizeLast=0;collapsible=1;marginBottom=0;whiteSpace=wrap;html=1;" vertex="1" parent="1">
          <mxGeometry x="236" y="340" width="220" height="118" as="geometry" />
        </mxCell>
        <mxCell id="eROQJaaDopx0TfyOYrIg-8" value="+ game : Game&lt;div&gt;- gamePanel : JPanel&lt;/div&gt;&lt;div&gt;- chestButton : JButton&lt;/div&gt;&lt;div&gt;- characterLabels : ArrrayList&amp;lt;JLabel&amp;gt;&lt;/div&gt;&lt;div&gt;- transistorButtons : ArrayList&amp;lt;JButton&amp;gt;&lt;/div&gt;" style="text;strokeColor=none;fillColor=none;align=left;verticalAlign=top;spacingLeft=4;spacingRight=4;overflow=hidden;rotatable=0;points=[[0,0.5],[1,0.5]];portConstraint=eastwest;whiteSpace=wrap;html=1;" vertex="1" parent="eROQJaaDopx0TfyOYrIg-7">
          <mxGeometry y="26" width="220" height="84" as="geometry" />
        </mxCell>
        <mxCell id="eROQJaaDopx0TfyOYrIg-9" value="" style="line;strokeWidth=1;fillColor=none;align=left;verticalAlign=middle;spacingTop=-1;spacingLeft=3;spacingRight=3;rotatable=0;labelPosition=right;points=[];portConstraint=eastwest;strokeColor=inherit;" vertex="1" parent="eROQJaaDopx0TfyOYrIg-7">
          <mxGeometry y="110" width="220" height="8" as="geometry" />
        </mxCell>
        <mxCell id="eROQJaaDopx0TfyOYrIg-10" value="RoomFrame" style="swimlane;fontStyle=1;align=center;verticalAlign=top;childLayout=stackLayout;horizontal=1;startSize=26;horizontalStack=0;resizeParent=1;resizeParentMax=0;resizeLast=0;collapsible=1;marginBottom=0;whiteSpace=wrap;html=1;" vertex="1" parent="1">
          <mxGeometry x="220" y="30" width="176" height="148" as="geometry" />
        </mxCell>
        <mxCell id="eROQJaaDopx0TfyOYrIg-11" value="&lt;div&gt;- hallgato: Hallgato&lt;/div&gt;&lt;div&gt;- panel: JPanel&lt;/div&gt;&lt;div&gt;- JScrollPane scrollPane&lt;/div&gt;&lt;div&gt;- roomlist: JList&lt;/div&gt;&lt;div&gt;- movebutton: JButton&lt;/div&gt;" style="text;strokeColor=none;fillColor=none;align=left;verticalAlign=top;spacingLeft=4;spacingRight=4;overflow=hidden;rotatable=0;points=[[0,0.5],[1,0.5]];portConstraint=eastwest;whiteSpace=wrap;html=1;" vertex="1" parent="eROQJaaDopx0TfyOYrIg-10">
          <mxGeometry y="26" width="176" height="114" as="geometry" />
        </mxCell>
        <mxCell id="eROQJaaDopx0TfyOYrIg-12" value="" style="line;strokeWidth=1;fillColor=none;align=left;verticalAlign=middle;spacingTop=-1;spacingLeft=3;spacingRight=3;rotatable=0;labelPosition=right;points=[];portConstraint=eastwest;strokeColor=inherit;" vertex="1" parent="eROQJaaDopx0TfyOYrIg-10">
          <mxGeometry y="140" width="176" height="8" as="geometry" />
        </mxCell>
        <mxCell id="eROQJaaDopx0TfyOYrIg-13" value="ItemFrame" style="swimlane;fontStyle=1;align=center;verticalAlign=top;childLayout=stackLayout;horizontal=1;startSize=26;horizontalStack=0;resizeParent=1;resizeParentMax=0;resizeLast=0;collapsible=1;marginBottom=0;whiteSpace=wrap;html=1;" vertex="1" parent="1">
          <mxGeometry x="16" y="170" width="160" height="148" as="geometry" />
        </mxCell>
        <mxCell id="eROQJaaDopx0TfyOYrIg-14" value="&lt;div&gt;- hallgato: Hallgato&lt;/div&gt;&lt;div&gt;- panel: JPanel&lt;/div&gt;&lt;div&gt;- JScrollPane scrollPane&lt;/div&gt;&lt;div&gt;- itemlist: JList&lt;/div&gt;&lt;div&gt;- pickupbutton: JButton&lt;br&gt;&lt;/div&gt;" style="text;strokeColor=none;fillColor=none;align=left;verticalAlign=top;spacingLeft=4;spacingRight=4;overflow=hidden;rotatable=0;points=[[0,0.5],[1,0.5]];portConstraint=eastwest;whiteSpace=wrap;html=1;" vertex="1" parent="eROQJaaDopx0TfyOYrIg-13">
          <mxGeometry y="26" width="160" height="114" as="geometry" />
        </mxCell>
        <mxCell id="eROQJaaDopx0TfyOYrIg-15" value="" style="line;strokeWidth=1;fillColor=none;align=left;verticalAlign=middle;spacingTop=-1;spacingLeft=3;spacingRight=3;rotatable=0;labelPosition=right;points=[];portConstraint=eastwest;strokeColor=inherit;" vertex="1" parent="eROQJaaDopx0TfyOYrIg-13">
          <mxGeometry y="140" width="160" height="8" as="geometry" />
        </mxCell>
        <mxCell id="eROQJaaDopx0TfyOYrIg-16" value="MenuPanel" style="swimlane;fontStyle=1;align=center;verticalAlign=top;childLayout=stackLayout;horizontal=1;startSize=26;horizontalStack=0;resizeParent=1;resizeParentMax=0;resizeLast=0;collapsible=1;marginBottom=0;whiteSpace=wrap;html=1;" vertex="1" parent="1">
          <mxGeometry x="386" y="610" width="160" height="108" as="geometry" />
        </mxCell>
        <mxCell id="eROQJaaDopx0TfyOYrIg-17" value="&lt;div&gt;- hallgato: Hallgato&lt;/div&gt;-timeLabel: JLabel&lt;div&gt;-playerLabel: JLabel&lt;/div&gt;&lt;div&gt;-roomLabel: JLabel&lt;/div&gt;" style="text;strokeColor=none;fillColor=none;align=left;verticalAlign=top;spacingLeft=4;spacingRight=4;overflow=hidden;rotatable=0;points=[[0,0.5],[1,0.5]];portConstraint=eastwest;whiteSpace=wrap;html=1;" vertex="1" parent="eROQJaaDopx0TfyOYrIg-16">
          <mxGeometry y="26" width="160" height="74" as="geometry" />
        </mxCell>
        <mxCell id="eROQJaaDopx0TfyOYrIg-18" value="" style="line;strokeWidth=1;fillColor=none;align=left;verticalAlign=middle;spacingTop=-1;spacingLeft=3;spacingRight=3;rotatable=0;labelPosition=right;points=[];portConstraint=eastwest;strokeColor=inherit;" vertex="1" parent="eROQJaaDopx0TfyOYrIg-16">
          <mxGeometry y="100" width="160" height="8" as="geometry" />
        </mxCell>
        <mxCell id="eROQJaaDopx0TfyOYrIg-19" value="UserPanel" style="swimlane;fontStyle=1;align=center;verticalAlign=top;childLayout=stackLayout;horizontal=1;startSize=26;horizontalStack=0;resizeParent=1;resizeParentMax=0;resizeLast=0;collapsible=1;marginBottom=0;whiteSpace=wrap;html=1;" vertex="1" parent="1">
          <mxGeometry x="206" y="590" width="160" height="128" as="geometry" />
        </mxCell>
        <mxCell id="eROQJaaDopx0TfyOYrIg-20" value="&lt;div&gt;- hallgato : Hallgato&lt;/div&gt;&lt;div&gt;- JScrollPane scrollPane&lt;div&gt;- targyLista: JList&lt;/div&gt;&lt;div&gt;- useButton: JButton&lt;/div&gt;&lt;div&gt;- throwButton: JButton&lt;/div&gt;&lt;div&gt;- roomButton: JButton&lt;/div&gt;&lt;/div&gt;" style="text;strokeColor=none;fillColor=none;align=left;verticalAlign=top;spacingLeft=4;spacingRight=4;overflow=hidden;rotatable=0;points=[[0,0.5],[1,0.5]];portConstraint=eastwest;whiteSpace=wrap;html=1;" vertex="1" parent="eROQJaaDopx0TfyOYrIg-19">
          <mxGeometry y="26" width="160" height="94" as="geometry" />
        </mxCell>
        <mxCell id="eROQJaaDopx0TfyOYrIg-21" value="" style="line;strokeWidth=1;fillColor=none;align=left;verticalAlign=middle;spacingTop=-1;spacingLeft=3;spacingRight=3;rotatable=0;labelPosition=right;points=[];portConstraint=eastwest;strokeColor=inherit;" vertex="1" parent="eROQJaaDopx0TfyOYrIg-19">
          <mxGeometry y="120" width="160" height="8" as="geometry" />
        </mxCell>
        <mxCell id="eROQJaaDopx0TfyOYrIg-22" value="" style="endArrow=diamondThin;endFill=1;endSize=24;html=1;rounded=0;exitX=0.5;exitY=0;exitDx=0;exitDy=0;entryX=0.327;entryY=1.036;entryDx=0;entryDy=0;entryPerimeter=0;" edge="1" parent="1" source="eROQJaaDopx0TfyOYrIg-19" target="eROQJaaDopx0TfyOYrIg-8">
          <mxGeometry width="160" relative="1" as="geometry">
            <mxPoint x="76" y="550" as="sourcePoint" />
            <mxPoint x="306.18000000000006" y="484" as="targetPoint" />
            <Array as="points">
              <mxPoint x="308" y="560" />
            </Array>
          </mxGeometry>
        </mxCell>
        <mxCell id="eROQJaaDopx0TfyOYrIg-23" value="" style="endArrow=diamondThin;endFill=1;endSize=24;html=1;rounded=0;exitX=0.5;exitY=0;exitDx=0;exitDy=0;entryX=0.618;entryY=0.25;entryDx=0;entryDy=0;entryPerimeter=0;" edge="1" parent="1" source="eROQJaaDopx0TfyOYrIg-16" target="eROQJaaDopx0TfyOYrIg-9">
          <mxGeometry width="160" relative="1" as="geometry">
            <mxPoint x="556" y="580" as="sourcePoint" />
            <mxPoint x="370.8599999999999" y="483.01199999999994" as="targetPoint" />
            <Array as="points">
              <mxPoint x="372" y="560" />
            </Array>
          </mxGeometry>
        </mxCell>
        <mxCell id="eROQJaaDopx0TfyOYrIg-24" value="" style="endArrow=open;endSize=12;dashed=1;html=1;rounded=0;entryX=0.75;entryY=0;entryDx=0;entryDy=0;exitX=0.45;exitY=1.125;exitDx=0;exitDy=0;exitPerimeter=0;" edge="1" parent="1" source="eROQJaaDopx0TfyOYrIg-29" target="eROQJaaDopx0TfyOYrIg-7">
          <mxGeometry width="160" relative="1" as="geometry">
            <mxPoint x="491.4918032786886" y="292" as="sourcePoint" />
            <mxPoint x="296" y="350" as="targetPoint" />
            <Array as="points">
              <mxPoint x="512" y="340" />
            </Array>
          </mxGeometry>
        </mxCell>
        <mxCell id="eROQJaaDopx0TfyOYrIg-25" value="" style="endArrow=open;endSize=12;dashed=1;html=1;rounded=0;exitX=0.5;exitY=0;exitDx=0;exitDy=0;entryX=0.523;entryY=0.5;entryDx=0;entryDy=0;entryPerimeter=0;" edge="1" parent="1" source="eROQJaaDopx0TfyOYrIg-7" target="eROQJaaDopx0TfyOYrIg-12">
          <mxGeometry width="160" relative="1" as="geometry">
            <mxPoint x="456" y="253" as="sourcePoint" />
            <mxPoint x="316.79999999999995" y="212.08000000000004" as="targetPoint" />
          </mxGeometry>
        </mxCell>
        <mxCell id="eROQJaaDopx0TfyOYrIg-26" value="" style="endArrow=open;endSize=12;dashed=1;html=1;rounded=0;entryX=1;entryY=0.269;entryDx=0;entryDy=0;entryPerimeter=0;exitX=0.25;exitY=0;exitDx=0;exitDy=0;" edge="1" parent="1" source="eROQJaaDopx0TfyOYrIg-7" target="eROQJaaDopx0TfyOYrIg-14">
          <mxGeometry width="160" relative="1" as="geometry">
            <mxPoint x="286" y="190" as="sourcePoint" />
            <mxPoint x="286" y="270" as="targetPoint" />
          </mxGeometry>
        </mxCell>
        <mxCell id="eROQJaaDopx0TfyOYrIg-27" value="HomeFrame" style="swimlane;fontStyle=1;align=center;verticalAlign=top;childLayout=stackLayout;horizontal=1;startSize=26;horizontalStack=0;resizeParent=1;resizeParentMax=0;resizeLast=0;collapsible=1;marginBottom=0;whiteSpace=wrap;html=1;" vertex="1" parent="1">
          <mxGeometry x="426" y="150" width="190" height="146" as="geometry" />
        </mxCell>
        <mxCell id="eROQJaaDopx0TfyOYrIg-28" value="- hallgatoCntField : JTextField&lt;div&gt;- nameLabel : JLabel&lt;/div&gt;&lt;div&gt;- startButton : JButton&lt;/div&gt;&lt;div&gt;- exitButton : JButton&lt;br&gt;&lt;div&gt;&lt;br&gt;&lt;/div&gt;&lt;/div&gt;" style="text;strokeColor=none;fillColor=none;align=left;verticalAlign=top;spacingLeft=4;spacingRight=4;overflow=hidden;rotatable=0;points=[[0,0.5],[1,0.5]];portConstraint=eastwest;whiteSpace=wrap;html=1;" vertex="1" parent="eROQJaaDopx0TfyOYrIg-27">
          <mxGeometry y="26" width="190" height="112" as="geometry" />
        </mxCell>
        <mxCell id="eROQJaaDopx0TfyOYrIg-29" value="" style="line;strokeWidth=1;fillColor=none;align=left;verticalAlign=middle;spacingTop=-1;spacingLeft=3;spacingRight=3;rotatable=0;labelPosition=right;points=[];portConstraint=eastwest;strokeColor=inherit;" vertex="1" parent="eROQJaaDopx0TfyOYrIg-27">
          <mxGeometry y="138" width="190" height="8" as="geometry" />
        </mxCell>
        <mxCell id="eROQJaaDopx0TfyOYrIg-30" value="RoomViewModel" style="swimlane;fontStyle=1;align=center;verticalAlign=top;childLayout=stackLayout;horizontal=1;startSize=26;horizontalStack=0;resizeParent=1;resizeParentMax=0;resizeLast=0;collapsible=1;marginBottom=0;whiteSpace=wrap;html=1;" vertex="1" parent="1">
          <mxGeometry x="326" y="-400" width="254" height="230" as="geometry" />
        </mxCell>
        <mxCell id="eROQJaaDopx0TfyOYrIg-31" value="-szoba : Szoba" style="text;strokeColor=none;fillColor=none;align=left;verticalAlign=top;spacingLeft=4;spacingRight=4;overflow=hidden;rotatable=0;points=[[0,0.5],[1,0.5]];portConstraint=eastwest;whiteSpace=wrap;html=1;" vertex="1" parent="eROQJaaDopx0TfyOYrIg-30">
          <mxGeometry y="26" width="254" height="26" as="geometry" />
        </mxCell>
        <mxCell id="eROQJaaDopx0TfyOYrIg-32" value="" style="line;strokeWidth=1;fillColor=none;align=left;verticalAlign=middle;spacingTop=-1;spacingLeft=3;spacingRight=3;rotatable=0;labelPosition=right;points=[];portConstraint=eastwest;strokeColor=inherit;" vertex="1" parent="eROQJaaDopx0TfyOYrIg-30">
          <mxGeometry y="52" width="254" height="8" as="geometry" />
        </mxCell>
        <mxCell id="eROQJaaDopx0TfyOYrIg-33" value="+ method(type): type&lt;div&gt;+ targy_elhelyezeseAction (ActionEvent e)&lt;/div&gt;&lt;div&gt;+ targy_eltunteteseAction (ActionEvent e)&lt;br&gt;&lt;/div&gt;&lt;div&gt;+ osztodikAction (&lt;span style=&quot;background-color: initial;&quot;&gt;ActionEvent e&lt;/span&gt;&lt;span style=&quot;background-color: initial;&quot;&gt;)&lt;/span&gt;&lt;/div&gt;&lt;div&gt;&lt;span style=&quot;background-color: initial;&quot;&gt;+ egyesulAction (&lt;/span&gt;&lt;span style=&quot;background-color: initial;&quot;&gt;ActionEvent e&lt;/span&gt;&lt;span style=&quot;background-color: initial;&quot;&gt;)&lt;/span&gt;&lt;/div&gt;&lt;div&gt;&lt;span style=&quot;background-color: initial;&quot;&gt;+ removeOktatoAction&amp;nbsp;&lt;/span&gt;&lt;span style=&quot;background-color: initial;&quot;&gt;(&lt;/span&gt;&lt;span style=&quot;background-color: initial;&quot;&gt;ActionEvent e&lt;/span&gt;&lt;span style=&quot;background-color: initial;&quot;&gt;)&lt;/span&gt;&lt;/div&gt;&lt;div&gt;&lt;span style=&quot;background-color: initial;&quot;&gt;+ removeHallgatoAction&amp;nbsp;&lt;/span&gt;&lt;span style=&quot;background-color: initial;&quot;&gt;(&lt;/span&gt;&lt;span style=&quot;background-color: initial;&quot;&gt;ActionEvent e&lt;/span&gt;&lt;span style=&quot;background-color: initial;&quot;&gt;)&lt;/span&gt;&lt;/div&gt;&lt;div&gt;&lt;span style=&quot;background-color: initial;&quot;&gt;+ removeTakaritoAction&amp;nbsp;&lt;/span&gt;&lt;span style=&quot;background-color: initial;&quot;&gt;(&lt;/span&gt;&lt;span style=&quot;background-color: initial;&quot;&gt;ActionEvent e&lt;/span&gt;&lt;span style=&quot;background-color: initial;&quot;&gt;)&lt;/span&gt;&lt;/div&gt;&lt;div&gt;&lt;span style=&quot;background-color: initial;&quot;&gt;+ addOktatoAction&amp;nbsp;&lt;/span&gt;&lt;span style=&quot;background-color: initial;&quot;&gt;(&lt;/span&gt;&lt;span style=&quot;background-color: initial;&quot;&gt;ActionEvent e&lt;/span&gt;&lt;span style=&quot;background-color: initial;&quot;&gt;)&lt;/span&gt;&lt;/div&gt;&lt;div&gt;&lt;span style=&quot;background-color: initial;&quot;&gt;+ addHallgatoAction&amp;nbsp;&lt;/span&gt;&lt;span style=&quot;background-color: initial;&quot;&gt;(&lt;/span&gt;&lt;span style=&quot;background-color: initial;&quot;&gt;ActionEvent e&lt;/span&gt;&lt;span style=&quot;background-color: initial;&quot;&gt;)&lt;/span&gt;&lt;/div&gt;&lt;div&gt;&lt;span style=&quot;background-color: initial;&quot;&gt;+ addTakaritoAction&amp;nbsp;&lt;/span&gt;&lt;span style=&quot;background-color: initial;&quot;&gt;(&lt;/span&gt;&lt;span style=&quot;background-color: initial;&quot;&gt;ActionEvent e&lt;/span&gt;&lt;span style=&quot;background-color: initial;&quot;&gt;)&lt;/span&gt;&lt;/div&gt;" style="text;strokeColor=none;fillColor=none;align=left;verticalAlign=top;spacingLeft=4;spacingRight=4;overflow=hidden;rotatable=0;points=[[0,0.5],[1,0.5]];portConstraint=eastwest;whiteSpace=wrap;html=1;" vertex="1" parent="eROQJaaDopx0TfyOYrIg-30">
          <mxGeometry y="60" width="254" height="170" as="geometry" />
        </mxCell>
        <mxCell id="eROQJaaDopx0TfyOYrIg-34" value="MapViewModel" style="swimlane;fontStyle=1;align=center;verticalAlign=top;childLayout=stackLayout;horizontal=1;startSize=26;horizontalStack=0;resizeParent=1;resizeParentMax=0;resizeLast=0;collapsible=1;marginBottom=0;whiteSpace=wrap;html=1;" vertex="1" parent="1">
          <mxGeometry x="146" y="-910" width="180" height="120" as="geometry" />
        </mxCell>
        <mxCell id="eROQJaaDopx0TfyOYrIg-35" value="+ field: type" style="text;strokeColor=none;fillColor=none;align=left;verticalAlign=top;spacingLeft=4;spacingRight=4;overflow=hidden;rotatable=0;points=[[0,0.5],[1,0.5]];portConstraint=eastwest;whiteSpace=wrap;html=1;" vertex="1" parent="eROQJaaDopx0TfyOYrIg-34">
          <mxGeometry y="26" width="180" height="26" as="geometry" />
        </mxCell>
        <mxCell id="eROQJaaDopx0TfyOYrIg-36" value="" style="line;strokeWidth=1;fillColor=none;align=left;verticalAlign=middle;spacingTop=-1;spacingLeft=3;spacingRight=3;rotatable=0;labelPosition=right;points=[];portConstraint=eastwest;strokeColor=inherit;" vertex="1" parent="eROQJaaDopx0TfyOYrIg-34">
          <mxGeometry y="52" width="180" height="8" as="geometry" />
        </mxCell>
        <mxCell id="eROQJaaDopx0TfyOYrIg-37" value="+ method(type): type&lt;div&gt;+ generalAction (ActionEvent e)&lt;/div&gt;&lt;div&gt;+ leptetAction (ActionEvnet e)&lt;/div&gt;" style="text;strokeColor=none;fillColor=none;align=left;verticalAlign=top;spacingLeft=4;spacingRight=4;overflow=hidden;rotatable=0;points=[[0,0.5],[1,0.5]];portConstraint=eastwest;whiteSpace=wrap;html=1;" vertex="1" parent="eROQJaaDopx0TfyOYrIg-34">
          <mxGeometry y="60" width="180" height="60" as="geometry" />
        </mxCell>
        <mxCell id="eROQJaaDopx0TfyOYrIg-38" value="KarakterViewModel" style="swimlane;fontStyle=1;align=center;verticalAlign=top;childLayout=stackLayout;horizontal=1;startSize=26;horizontalStack=0;resizeParent=1;resizeParentMax=0;resizeLast=0;collapsible=1;marginBottom=0;whiteSpace=wrap;html=1;" vertex="1" parent="1">
          <mxGeometry x="-224" y="-627" width="230" height="130" as="geometry" />
        </mxCell>
        <mxCell id="eROQJaaDopx0TfyOYrIg-39" value="- karakter : Karakter" style="text;strokeColor=none;fillColor=none;align=left;verticalAlign=top;spacingLeft=4;spacingRight=4;overflow=hidden;rotatable=0;points=[[0,0.5],[1,0.5]];portConstraint=eastwest;whiteSpace=wrap;html=1;" vertex="1" parent="eROQJaaDopx0TfyOYrIg-38">
          <mxGeometry y="26" width="230" height="26" as="geometry" />
        </mxCell>
        <mxCell id="eROQJaaDopx0TfyOYrIg-40" value="" style="line;strokeWidth=1;fillColor=none;align=left;verticalAlign=middle;spacingTop=-1;spacingLeft=3;spacingRight=3;rotatable=0;labelPosition=right;points=[];portConstraint=eastwest;strokeColor=inherit;" vertex="1" parent="eROQJaaDopx0TfyOYrIg-38">
          <mxGeometry y="52" width="230" height="8" as="geometry" />
        </mxCell>
        <mxCell id="eROQJaaDopx0TfyOYrIg-41" value="+ method(type): type&lt;div&gt;+ mozogAction (ActionEvent e)&lt;/div&gt;&lt;div&gt;+ felveszAction (ActionEvent e)&lt;/div&gt;&lt;div&gt;+ eszmeletvesztesAction (ActionEvent e)&lt;/div&gt;" style="text;strokeColor=none;fillColor=none;align=left;verticalAlign=top;spacingLeft=4;spacingRight=4;overflow=hidden;rotatable=0;points=[[0,0.5],[1,0.5]];portConstraint=eastwest;whiteSpace=wrap;html=1;" vertex="1" parent="eROQJaaDopx0TfyOYrIg-38">
          <mxGeometry y="60" width="230" height="70" as="geometry" />
        </mxCell>
        <mxCell id="eROQJaaDopx0TfyOYrIg-42" value="ItemViewModel" style="swimlane;fontStyle=1;align=center;verticalAlign=top;childLayout=stackLayout;horizontal=1;startSize=26;horizontalStack=0;resizeParent=1;resizeParentMax=0;resizeLast=0;collapsible=1;marginBottom=0;whiteSpace=wrap;html=1;" vertex="1" parent="1">
          <mxGeometry x="-74" y="-203" width="160" height="86" as="geometry" />
        </mxCell>
        <mxCell id="eROQJaaDopx0TfyOYrIg-43" value="- targy : Item" style="text;strokeColor=none;fillColor=none;align=left;verticalAlign=top;spacingLeft=4;spacingRight=4;overflow=hidden;rotatable=0;points=[[0,0.5],[1,0.5]];portConstraint=eastwest;whiteSpace=wrap;html=1;" vertex="1" parent="eROQJaaDopx0TfyOYrIg-42">
          <mxGeometry y="26" width="160" height="26" as="geometry" />
        </mxCell>
        <mxCell id="eROQJaaDopx0TfyOYrIg-44" value="" style="line;strokeWidth=1;fillColor=none;align=left;verticalAlign=middle;spacingTop=-1;spacingLeft=3;spacingRight=3;rotatable=0;labelPosition=right;points=[];portConstraint=eastwest;strokeColor=inherit;" vertex="1" parent="eROQJaaDopx0TfyOYrIg-42">
          <mxGeometry y="52" width="160" height="8" as="geometry" />
        </mxCell>
        <mxCell id="eROQJaaDopx0TfyOYrIg-45" value="+ method(type): type" style="text;strokeColor=none;fillColor=none;align=left;verticalAlign=top;spacingLeft=4;spacingRight=4;overflow=hidden;rotatable=0;points=[[0,0.5],[1,0.5]];portConstraint=eastwest;whiteSpace=wrap;html=1;" vertex="1" parent="eROQJaaDopx0TfyOYrIg-42">
          <mxGeometry y="60" width="160" height="26" as="geometry" />
        </mxCell>
        <mxCell id="eROQJaaDopx0TfyOYrIg-46" value="" style="endArrow=open;endSize=12;dashed=1;html=1;rounded=0;exitX=0.5;exitY=0;exitDx=0;exitDy=0;entryX=0.727;entryY=1.005;entryDx=0;entryDy=0;entryPerimeter=0;" edge="1" parent="1" source="eROQJaaDopx0TfyOYrIg-30" target="eROQJaaDopx0TfyOYrIg-37">
          <mxGeometry width="160" relative="1" as="geometry">
            <mxPoint x="301" y="350" as="sourcePoint" />
            <mxPoint x="470" y="-790" as="targetPoint" />
          </mxGeometry>
        </mxCell>
        <mxCell id="eROQJaaDopx0TfyOYrIg-47" value="" style="endArrow=open;endSize=12;dashed=1;html=1;rounded=0;exitX=0.5;exitY=0;exitDx=0;exitDy=0;entryX=0.155;entryY=1.005;entryDx=0;entryDy=0;entryPerimeter=0;" edge="1" parent="1" source="eROQJaaDopx0TfyOYrIg-38" target="eROQJaaDopx0TfyOYrIg-37">
          <mxGeometry width="160" relative="1" as="geometry">
            <mxPoint x="311" y="360" as="sourcePoint" />
            <mxPoint x="190" y="-790" as="targetPoint" />
          </mxGeometry>
        </mxCell>
        <mxCell id="eROQJaaDopx0TfyOYrIg-48" value="" style="endArrow=open;endSize=12;dashed=1;html=1;rounded=0;exitX=0.5;exitY=0;exitDx=0;exitDy=0;entryX=0.431;entryY=1.013;entryDx=0;entryDy=0;entryPerimeter=0;" edge="1" parent="1" source="eROQJaaDopx0TfyOYrIg-42" target="eROQJaaDopx0TfyOYrIg-37">
          <mxGeometry width="160" relative="1" as="geometry">
            <mxPoint x="321" y="370" as="sourcePoint" />
            <mxPoint x="380" y="-810" as="targetPoint" />
          </mxGeometry>
        </mxCell>
        <mxCell id="eROQJaaDopx0TfyOYrIg-49" value="" style="endArrow=open;endSize=12;dashed=1;html=1;rounded=0;entryX=0.75;entryY=1;entryDx=0;entryDy=0;exitX=0.75;exitY=0;exitDx=0;exitDy=0;" edge="1" parent="1" source="eROQJaaDopx0TfyOYrIg-42" target="eROQJaaDopx0TfyOYrIg-13">
          <mxGeometry width="160" relative="1" as="geometry">
            <mxPoint x="76" y="595" as="sourcePoint" />
            <mxPoint x="-68" y="448" as="targetPoint" />
          </mxGeometry>
        </mxCell>
        <mxCell id="eROQJaaDopx0TfyOYrIg-50" value="" style="endArrow=open;endSize=12;dashed=1;html=1;rounded=0;entryX=0.75;entryY=0;entryDx=0;entryDy=0;exitX=0.75;exitY=0;exitDx=0;exitDy=0;" edge="1" parent="1" source="eROQJaaDopx0TfyOYrIg-30" target="eROQJaaDopx0TfyOYrIg-10">
          <mxGeometry width="160" relative="1" as="geometry">
            <mxPoint x="-334" y="595" as="sourcePoint" />
            <mxPoint x="-170" y="447" as="targetPoint" />
          </mxGeometry>
        </mxCell>
        <mxCell id="eROQJaaDopx0TfyOYrIg-55" value="CamembertViewModel" style="swimlane;fontStyle=1;align=center;verticalAlign=top;childLayout=stackLayout;horizontal=1;startSize=26;horizontalStack=0;resizeParent=1;resizeParentMax=0;resizeLast=0;collapsible=1;marginBottom=0;whiteSpace=wrap;html=1;" vertex="1" parent="1">
          <mxGeometry x="-494" y="150" width="160" height="60" as="geometry" />
        </mxCell>
        <mxCell id="eROQJaaDopx0TfyOYrIg-57" value="" style="line;strokeWidth=1;fillColor=none;align=left;verticalAlign=middle;spacingTop=-1;spacingLeft=3;spacingRight=3;rotatable=0;labelPosition=right;points=[];portConstraint=eastwest;strokeColor=inherit;" vertex="1" parent="eROQJaaDopx0TfyOYrIg-55">
          <mxGeometry y="26" width="160" height="8" as="geometry" />
        </mxCell>
        <mxCell id="eROQJaaDopx0TfyOYrIg-58" value="+ useAction(ActionEvent e)" style="text;strokeColor=none;fillColor=none;align=left;verticalAlign=top;spacingLeft=4;spacingRight=4;overflow=hidden;rotatable=0;points=[[0,0.5],[1,0.5]];portConstraint=eastwest;whiteSpace=wrap;html=1;" vertex="1" parent="eROQJaaDopx0TfyOYrIg-55">
          <mxGeometry y="34" width="160" height="26" as="geometry" />
        </mxCell>
        <mxCell id="eROQJaaDopx0TfyOYrIg-59" value="Legfrissito&lt;span style=&quot;background-color: initial;&quot;&gt;ViewModel&lt;/span&gt;" style="swimlane;fontStyle=1;align=center;verticalAlign=top;childLayout=stackLayout;horizontal=1;startSize=26;horizontalStack=0;resizeParent=1;resizeParentMax=0;resizeLast=0;collapsible=1;marginBottom=0;whiteSpace=wrap;html=1;" vertex="1" parent="1">
          <mxGeometry x="-364" y="220" width="160" height="60" as="geometry" />
        </mxCell>
        <mxCell id="eROQJaaDopx0TfyOYrIg-60" value="" style="line;strokeWidth=1;fillColor=none;align=left;verticalAlign=middle;spacingTop=-1;spacingLeft=3;spacingRight=3;rotatable=0;labelPosition=right;points=[];portConstraint=eastwest;strokeColor=inherit;" vertex="1" parent="eROQJaaDopx0TfyOYrIg-59">
          <mxGeometry y="26" width="160" height="8" as="geometry" />
        </mxCell>
        <mxCell id="eROQJaaDopx0TfyOYrIg-61" value="+ useAction(ActionEvent e)" style="text;strokeColor=none;fillColor=none;align=left;verticalAlign=top;spacingLeft=4;spacingRight=4;overflow=hidden;rotatable=0;points=[[0,0.5],[1,0.5]];portConstraint=eastwest;whiteSpace=wrap;html=1;" vertex="1" parent="eROQJaaDopx0TfyOYrIg-59">
          <mxGeometry y="34" width="160" height="26" as="geometry" />
        </mxCell>
        <mxCell id="eROQJaaDopx0TfyOYrIg-62" value="Tranzisztor&lt;span style=&quot;background-color: initial;&quot;&gt;ViewModel&lt;/span&gt;" style="swimlane;fontStyle=1;align=center;verticalAlign=top;childLayout=stackLayout;horizontal=1;startSize=26;horizontalStack=0;resizeParent=1;resizeParentMax=0;resizeLast=0;collapsible=1;marginBottom=0;whiteSpace=wrap;html=1;" vertex="1" parent="1">
          <mxGeometry x="-204" y="290" width="160" height="60" as="geometry" />
        </mxCell>
        <mxCell id="eROQJaaDopx0TfyOYrIg-63" value="" style="line;strokeWidth=1;fillColor=none;align=left;verticalAlign=middle;spacingTop=-1;spacingLeft=3;spacingRight=3;rotatable=0;labelPosition=right;points=[];portConstraint=eastwest;strokeColor=inherit;" vertex="1" parent="eROQJaaDopx0TfyOYrIg-62">
          <mxGeometry y="26" width="160" height="8" as="geometry" />
        </mxCell>
        <mxCell id="eROQJaaDopx0TfyOYrIg-64" value="+ useAction(ActionEvent e)" style="text;strokeColor=none;fillColor=none;align=left;verticalAlign=top;spacingLeft=4;spacingRight=4;overflow=hidden;rotatable=0;points=[[0,0.5],[1,0.5]];portConstraint=eastwest;whiteSpace=wrap;html=1;" vertex="1" parent="eROQJaaDopx0TfyOYrIg-62">
          <mxGeometry y="34" width="160" height="26" as="geometry" />
        </mxCell>
        <mxCell id="eROQJaaDopx0TfyOYrIg-66" value="" style="endArrow=open;endSize=12;dashed=1;html=1;rounded=0;entryX=1;entryY=0.25;entryDx=0;entryDy=0;exitX=0.288;exitY=1.077;exitDx=0;exitDy=0;exitPerimeter=0;" edge="1" parent="1" source="eROQJaaDopx0TfyOYrIg-45" target="eROQJaaDopx0TfyOYrIg-55">
          <mxGeometry width="160" relative="1" as="geometry">
            <mxPoint x="-64" y="-76" as="sourcePoint" />
            <mxPoint x="244" y="-354" as="targetPoint" />
          </mxGeometry>
        </mxCell>
        <mxCell id="eROQJaaDopx0TfyOYrIg-67" value="" style="endArrow=open;endSize=12;dashed=1;html=1;rounded=0;entryX=1;entryY=0.25;entryDx=0;entryDy=0;exitX=0.388;exitY=1.115;exitDx=0;exitDy=0;exitPerimeter=0;" edge="1" parent="1" source="eROQJaaDopx0TfyOYrIg-45" target="eROQJaaDopx0TfyOYrIg-59">
          <mxGeometry width="160" relative="1" as="geometry">
            <mxPoint x="-84" as="sourcePoint" />
            <mxPoint x="-374" y="15" as="targetPoint" />
          </mxGeometry>
        </mxCell>
        <mxCell id="eROQJaaDopx0TfyOYrIg-68" value="" style="endArrow=open;endSize=12;dashed=1;html=1;rounded=0;entryX=0.75;entryY=0;entryDx=0;entryDy=0;exitX=0.481;exitY=1.154;exitDx=0;exitDy=0;exitPerimeter=0;" edge="1" parent="1" source="eROQJaaDopx0TfyOYrIg-45" target="eROQJaaDopx0TfyOYrIg-62">
          <mxGeometry width="160" relative="1" as="geometry">
            <mxPoint x="-88" y="22" as="sourcePoint" />
            <mxPoint x="-364" y="25" as="targetPoint" />
          </mxGeometry>
        </mxCell>
        <mxCell id="eROQJaaDopx0TfyOYrIg-69" value="RongyViewModel" style="swimlane;fontStyle=1;align=center;verticalAlign=top;childLayout=stackLayout;horizontal=1;startSize=26;horizontalStack=0;resizeParent=1;resizeParentMax=0;resizeLast=0;collapsible=1;marginBottom=0;whiteSpace=wrap;html=1;" vertex="1" parent="1">
          <mxGeometry x="-534" y="-220" width="160" height="60" as="geometry" />
        </mxCell>
        <mxCell id="eROQJaaDopx0TfyOYrIg-70" value="" style="line;strokeWidth=1;fillColor=none;align=left;verticalAlign=middle;spacingTop=-1;spacingLeft=3;spacingRight=3;rotatable=0;labelPosition=right;points=[];portConstraint=eastwest;strokeColor=inherit;" vertex="1" parent="eROQJaaDopx0TfyOYrIg-69">
          <mxGeometry y="26" width="160" height="8" as="geometry" />
        </mxCell>
        <mxCell id="eROQJaaDopx0TfyOYrIg-71" value="+ tickAction(ActionEvent e)" style="text;strokeColor=none;fillColor=none;align=left;verticalAlign=top;spacingLeft=4;spacingRight=4;overflow=hidden;rotatable=0;points=[[0,0.5],[1,0.5]];portConstraint=eastwest;whiteSpace=wrap;html=1;" vertex="1" parent="eROQJaaDopx0TfyOYrIg-69">
          <mxGeometry y="34" width="160" height="26" as="geometry" />
        </mxCell>
        <mxCell id="eROQJaaDopx0TfyOYrIg-72" value="SorospoharViewModel" style="swimlane;fontStyle=1;align=center;verticalAlign=top;childLayout=stackLayout;horizontal=1;startSize=26;horizontalStack=0;resizeParent=1;resizeParentMax=0;resizeLast=0;collapsible=1;marginBottom=0;whiteSpace=wrap;html=1;" vertex="1" parent="1">
          <mxGeometry x="-544" y="-130" width="160" height="60" as="geometry" />
        </mxCell>
        <mxCell id="eROQJaaDopx0TfyOYrIg-73" value="" style="line;strokeWidth=1;fillColor=none;align=left;verticalAlign=middle;spacingTop=-1;spacingLeft=3;spacingRight=3;rotatable=0;labelPosition=right;points=[];portConstraint=eastwest;strokeColor=inherit;" vertex="1" parent="eROQJaaDopx0TfyOYrIg-72">
          <mxGeometry y="26" width="160" height="8" as="geometry" />
        </mxCell>
        <mxCell id="eROQJaaDopx0TfyOYrIg-74" value="+ tickAction(ActionEvent e)" style="text;strokeColor=none;fillColor=none;align=left;verticalAlign=top;spacingLeft=4;spacingRight=4;overflow=hidden;rotatable=0;points=[[0,0.5],[1,0.5]];portConstraint=eastwest;whiteSpace=wrap;html=1;" vertex="1" parent="eROQJaaDopx0TfyOYrIg-72">
          <mxGeometry y="34" width="160" height="26" as="geometry" />
        </mxCell>
        <mxCell id="eROQJaaDopx0TfyOYrIg-75" value="TVSZViewModel" style="swimlane;fontStyle=1;align=center;verticalAlign=top;childLayout=stackLayout;horizontal=1;startSize=26;horizontalStack=0;resizeParent=1;resizeParentMax=0;resizeLast=0;collapsible=1;marginBottom=0;whiteSpace=wrap;html=1;" vertex="1" parent="1">
          <mxGeometry x="-554" y="-30" width="180" height="60" as="geometry" />
        </mxCell>
        <mxCell id="eROQJaaDopx0TfyOYrIg-76" value="" style="line;strokeWidth=1;fillColor=none;align=left;verticalAlign=middle;spacingTop=-1;spacingLeft=3;spacingRight=3;rotatable=0;labelPosition=right;points=[];portConstraint=eastwest;strokeColor=inherit;" vertex="1" parent="eROQJaaDopx0TfyOYrIg-75">
          <mxGeometry y="26" width="180" height="8" as="geometry" />
        </mxCell>
        <mxCell id="eROQJaaDopx0TfyOYrIg-77" value="+ ActionListener(ActionEvent e)" style="text;strokeColor=none;fillColor=none;align=left;verticalAlign=top;spacingLeft=4;spacingRight=4;overflow=hidden;rotatable=0;points=[[0,0.5],[1,0.5]];portConstraint=eastwest;whiteSpace=wrap;html=1;" vertex="1" parent="eROQJaaDopx0TfyOYrIg-75">
          <mxGeometry y="34" width="180" height="26" as="geometry" />
        </mxCell>
        <mxCell id="eROQJaaDopx0TfyOYrIg-78" value="MaszkViewModel" style="swimlane;fontStyle=1;align=center;verticalAlign=top;childLayout=stackLayout;horizontal=1;startSize=26;horizontalStack=0;resizeParent=1;resizeParentMax=0;resizeLast=0;collapsible=1;marginBottom=0;whiteSpace=wrap;html=1;" vertex="1" parent="1">
          <mxGeometry x="-534" y="50" width="180" height="60" as="geometry" />
        </mxCell>
        <mxCell id="eROQJaaDopx0TfyOYrIg-79" value="" style="line;strokeWidth=1;fillColor=none;align=left;verticalAlign=middle;spacingTop=-1;spacingLeft=3;spacingRight=3;rotatable=0;labelPosition=right;points=[];portConstraint=eastwest;strokeColor=inherit;" vertex="1" parent="eROQJaaDopx0TfyOYrIg-78">
          <mxGeometry y="26" width="180" height="8" as="geometry" />
        </mxCell>
        <mxCell id="eROQJaaDopx0TfyOYrIg-80" value="+ ActionListener(ActionEvent e)" style="text;strokeColor=none;fillColor=none;align=left;verticalAlign=top;spacingLeft=4;spacingRight=4;overflow=hidden;rotatable=0;points=[[0,0.5],[1,0.5]];portConstraint=eastwest;whiteSpace=wrap;html=1;" vertex="1" parent="eROQJaaDopx0TfyOYrIg-78">
          <mxGeometry y="34" width="180" height="26" as="geometry" />
        </mxCell>
        <mxCell id="eROQJaaDopx0TfyOYrIg-81" value="" style="endArrow=open;endSize=12;dashed=1;html=1;rounded=0;entryX=1;entryY=0.4;entryDx=0;entryDy=0;exitX=0;exitY=0.5;exitDx=0;exitDy=0;entryPerimeter=0;" edge="1" parent="1" source="eROQJaaDopx0TfyOYrIg-45" target="eROQJaaDopx0TfyOYrIg-78">
          <mxGeometry width="160" relative="1" as="geometry">
            <mxPoint x="-18" y="-105" as="sourcePoint" />
            <mxPoint x="-324" y="175" as="targetPoint" />
          </mxGeometry>
        </mxCell>
        <mxCell id="eROQJaaDopx0TfyOYrIg-82" value="" style="endArrow=open;endSize=12;dashed=1;html=1;rounded=0;entryX=1;entryY=0.5;entryDx=0;entryDy=0;exitX=-0.025;exitY=0;exitDx=0;exitDy=0;exitPerimeter=0;" edge="1" parent="1" source="eROQJaaDopx0TfyOYrIg-45" target="eROQJaaDopx0TfyOYrIg-75">
          <mxGeometry width="160" relative="1" as="geometry">
            <mxPoint x="-8" y="-95" as="sourcePoint" />
            <mxPoint x="-314" y="185" as="targetPoint" />
          </mxGeometry>
        </mxCell>
        <mxCell id="eROQJaaDopx0TfyOYrIg-83" value="" style="endArrow=open;endSize=12;dashed=1;html=1;rounded=0;entryX=1.006;entryY=0.4;entryDx=0;entryDy=0;exitX=0;exitY=0.5;exitDx=0;exitDy=0;entryPerimeter=0;" edge="1" parent="1" source="eROQJaaDopx0TfyOYrIg-43" target="eROQJaaDopx0TfyOYrIg-72">
          <mxGeometry width="160" relative="1" as="geometry">
            <mxPoint x="2" y="-85" as="sourcePoint" />
            <mxPoint x="-304" y="195" as="targetPoint" />
          </mxGeometry>
        </mxCell>
        <mxCell id="eROQJaaDopx0TfyOYrIg-84" value="" style="endArrow=open;endSize=12;dashed=1;html=1;rounded=0;entryX=1;entryY=0.5;entryDx=0;entryDy=0;exitX=0;exitY=0.25;exitDx=0;exitDy=0;" edge="1" parent="1" source="eROQJaaDopx0TfyOYrIg-42" target="eROQJaaDopx0TfyOYrIg-69">
          <mxGeometry width="160" relative="1" as="geometry">
            <mxPoint x="12" y="-75" as="sourcePoint" />
            <mxPoint x="-294" y="205" as="targetPoint" />
          </mxGeometry>
        </mxCell>
        <mxCell id="eROQJaaDopx0TfyOYrIg-85" value="HallgatoViewModel" style="swimlane;fontStyle=1;align=center;verticalAlign=top;childLayout=stackLayout;horizontal=1;startSize=26;horizontalStack=0;resizeParent=1;resizeParentMax=0;resizeLast=0;collapsible=1;marginBottom=0;whiteSpace=wrap;html=1;" vertex="1" parent="1">
          <mxGeometry x="-604" y="-430" width="180" height="130" as="geometry" />
        </mxCell>
        <mxCell id="eROQJaaDopx0TfyOYrIg-86" value="+ field: type" style="text;strokeColor=none;fillColor=none;align=left;verticalAlign=top;spacingLeft=4;spacingRight=4;overflow=hidden;rotatable=0;points=[[0,0.5],[1,0.5]];portConstraint=eastwest;whiteSpace=wrap;html=1;" vertex="1" parent="eROQJaaDopx0TfyOYrIg-85">
          <mxGeometry y="26" width="180" height="26" as="geometry" />
        </mxCell>
        <mxCell id="eROQJaaDopx0TfyOYrIg-87" value="" style="line;strokeWidth=1;fillColor=none;align=left;verticalAlign=middle;spacingTop=-1;spacingLeft=3;spacingRight=3;rotatable=0;labelPosition=right;points=[];portConstraint=eastwest;strokeColor=inherit;" vertex="1" parent="eROQJaaDopx0TfyOYrIg-85">
          <mxGeometry y="52" width="180" height="8" as="geometry" />
        </mxCell>
        <mxCell id="eROQJaaDopx0TfyOYrIg-88" value="+ method(type): type&lt;div&gt;+ eldobAction (ActionEvent e)&lt;/div&gt;&lt;div&gt;+ kibukikAction (ActionEvent e)&lt;/div&gt;&lt;div&gt;+ teleportAction (ActionEvent e)&lt;/div&gt;" style="text;strokeColor=none;fillColor=none;align=left;verticalAlign=top;spacingLeft=4;spacingRight=4;overflow=hidden;rotatable=0;points=[[0,0.5],[1,0.5]];portConstraint=eastwest;whiteSpace=wrap;html=1;" vertex="1" parent="eROQJaaDopx0TfyOYrIg-85">
          <mxGeometry y="60" width="180" height="70" as="geometry" />
        </mxCell>
        <mxCell id="eROQJaaDopx0TfyOYrIg-89" value="OktatoViewModel" style="swimlane;fontStyle=1;align=center;verticalAlign=top;childLayout=stackLayout;horizontal=1;startSize=26;horizontalStack=0;resizeParent=1;resizeParentMax=0;resizeLast=0;collapsible=1;marginBottom=0;whiteSpace=wrap;html=1;" vertex="1" parent="1">
          <mxGeometry x="-394" y="-430" width="200" height="130" as="geometry" />
        </mxCell>
        <mxCell id="eROQJaaDopx0TfyOYrIg-90" value="+ field: type" style="text;strokeColor=none;fillColor=none;align=left;verticalAlign=top;spacingLeft=4;spacingRight=4;overflow=hidden;rotatable=0;points=[[0,0.5],[1,0.5]];portConstraint=eastwest;whiteSpace=wrap;html=1;" vertex="1" parent="eROQJaaDopx0TfyOYrIg-89">
          <mxGeometry y="26" width="200" height="26" as="geometry" />
        </mxCell>
        <mxCell id="eROQJaaDopx0TfyOYrIg-91" value="" style="line;strokeWidth=1;fillColor=none;align=left;verticalAlign=middle;spacingTop=-1;spacingLeft=3;spacingRight=3;rotatable=0;labelPosition=right;points=[];portConstraint=eastwest;strokeColor=inherit;" vertex="1" parent="eROQJaaDopx0TfyOYrIg-89">
          <mxGeometry y="52" width="200" height="8" as="geometry" />
        </mxCell>
        <mxCell id="eROQJaaDopx0TfyOYrIg-92" value="+ method(type): type&lt;div&gt;+ megbenulAction (ActionEvent e)&lt;/div&gt;" style="text;strokeColor=none;fillColor=none;align=left;verticalAlign=top;spacingLeft=4;spacingRight=4;overflow=hidden;rotatable=0;points=[[0,0.5],[1,0.5]];portConstraint=eastwest;whiteSpace=wrap;html=1;" vertex="1" parent="eROQJaaDopx0TfyOYrIg-89">
          <mxGeometry y="60" width="200" height="70" as="geometry" />
        </mxCell>
        <mxCell id="eROQJaaDopx0TfyOYrIg-93" value="TakaritoViewModel" style="swimlane;fontStyle=1;align=center;verticalAlign=top;childLayout=stackLayout;horizontal=1;startSize=26;horizontalStack=0;resizeParent=1;resizeParentMax=0;resizeLast=0;collapsible=1;marginBottom=0;whiteSpace=wrap;html=1;" vertex="1" parent="1">
          <mxGeometry x="-174" y="-430" width="180" height="130" as="geometry" />
        </mxCell>
        <mxCell id="eROQJaaDopx0TfyOYrIg-94" value="+ field: type" style="text;strokeColor=none;fillColor=none;align=left;verticalAlign=top;spacingLeft=4;spacingRight=4;overflow=hidden;rotatable=0;points=[[0,0.5],[1,0.5]];portConstraint=eastwest;whiteSpace=wrap;html=1;" vertex="1" parent="eROQJaaDopx0TfyOYrIg-93">
          <mxGeometry y="26" width="180" height="26" as="geometry" />
        </mxCell>
        <mxCell id="eROQJaaDopx0TfyOYrIg-95" value="" style="line;strokeWidth=1;fillColor=none;align=left;verticalAlign=middle;spacingTop=-1;spacingLeft=3;spacingRight=3;rotatable=0;labelPosition=right;points=[];portConstraint=eastwest;strokeColor=inherit;" vertex="1" parent="eROQJaaDopx0TfyOYrIg-93">
          <mxGeometry y="52" width="180" height="8" as="geometry" />
        </mxCell>
        <mxCell id="eROQJaaDopx0TfyOYrIg-96" value="+ method(type): type&lt;div&gt;+ kikuldAction (ActionEvent e)&lt;/div&gt;&lt;div&gt;+ takaritAction (ActionEvent e)&lt;/div&gt;" style="text;strokeColor=none;fillColor=none;align=left;verticalAlign=top;spacingLeft=4;spacingRight=4;overflow=hidden;rotatable=0;points=[[0,0.5],[1,0.5]];portConstraint=eastwest;whiteSpace=wrap;html=1;" vertex="1" parent="eROQJaaDopx0TfyOYrIg-93">
          <mxGeometry y="60" width="180" height="70" as="geometry" />
        </mxCell>
        <mxCell id="eROQJaaDopx0TfyOYrIg-97" value="" style="endArrow=open;endSize=12;dashed=1;html=1;rounded=0;entryX=0.839;entryY=0;entryDx=0;entryDy=0;exitX=0.213;exitY=0.986;exitDx=0;exitDy=0;exitPerimeter=0;entryPerimeter=0;" edge="1" parent="1" source="eROQJaaDopx0TfyOYrIg-41" target="eROQJaaDopx0TfyOYrIg-85">
          <mxGeometry width="160" relative="1" as="geometry">
            <mxPoint x="-64" y="-171" as="sourcePoint" />
            <mxPoint x="-364" y="-180" as="targetPoint" />
          </mxGeometry>
        </mxCell>
        <mxCell id="eROQJaaDopx0TfyOYrIg-98" value="" style="endArrow=open;endSize=12;dashed=1;html=1;rounded=0;entryX=0.75;entryY=0;entryDx=0;entryDy=0;exitX=0.378;exitY=0.986;exitDx=0;exitDy=0;exitPerimeter=0;" edge="1" parent="1" source="eROQJaaDopx0TfyOYrIg-41" target="eROQJaaDopx0TfyOYrIg-89">
          <mxGeometry width="160" relative="1" as="geometry">
            <mxPoint x="-165" y="-488" as="sourcePoint" />
            <mxPoint x="-443" y="-420" as="targetPoint" />
          </mxGeometry>
        </mxCell>
        <mxCell id="eROQJaaDopx0TfyOYrIg-99" value="" style="endArrow=open;endSize=12;dashed=1;html=1;rounded=0;entryX=0.5;entryY=0;entryDx=0;entryDy=0;exitX=0.543;exitY=1.014;exitDx=0;exitDy=0;exitPerimeter=0;" edge="1" parent="1" source="eROQJaaDopx0TfyOYrIg-41" target="eROQJaaDopx0TfyOYrIg-93">
          <mxGeometry width="160" relative="1" as="geometry">
            <mxPoint x="-155" y="-478" as="sourcePoint" />
            <mxPoint x="-433" y="-410" as="targetPoint" />
          </mxGeometry>
        </mxCell>
        <mxCell id="eROQJaaDopx0TfyOYrIg-100" value="Elatkozott_SzobawViewModel" style="swimlane;fontStyle=1;align=center;verticalAlign=top;childLayout=stackLayout;horizontal=1;startSize=26;horizontalStack=0;resizeParent=1;resizeParentMax=0;resizeLast=0;collapsible=1;marginBottom=0;whiteSpace=wrap;html=1;" vertex="1" parent="1">
          <mxGeometry x="530" y="-80" width="204" height="80" as="geometry" />
        </mxCell>
        <mxCell id="eROQJaaDopx0TfyOYrIg-101" value="" style="line;strokeWidth=1;fillColor=none;align=left;verticalAlign=middle;spacingTop=-1;spacingLeft=3;spacingRight=3;rotatable=0;labelPosition=right;points=[];portConstraint=eastwest;strokeColor=inherit;" vertex="1" parent="eROQJaaDopx0TfyOYrIg-100">
          <mxGeometry y="26" width="204" height="8" as="geometry" />
        </mxCell>
        <mxCell id="eROQJaaDopx0TfyOYrIg-102" value="+ eltunikAction(ActionEvent e)&lt;div&gt;+ elotunikAction&amp;nbsp;&lt;span style=&quot;background-color: initial;&quot;&gt;(ActionEvent e)&lt;/span&gt;&lt;span style=&quot;background-color: initial; color: rgba(0, 0, 0, 0); font-family: monospace; font-size: 0px; text-wrap: nowrap;&quot;&gt;%3CmxGraphModel%3E%3Croot%3E%3CmxCell%20id%3D%220%22%2F%3E%3CmxCell%20id%3D%221%22%20parent%3D%220%22%2F%3E%3CmxCell%20id%3D%222%22%20value%3D%22RongyViewModel%22%20style%3D%22swimlane%3BfontStyle%3D1%3Balign%3Dcenter%3BverticalAlign%3Dtop%3BchildLayout%3DstackLayout%3Bhorizontal%3D1%3BstartSize%3D26%3BhorizontalStack%3D0%3BresizeParent%3D1%3BresizeParentMax%3D0%3BresizeLast%3D0%3Bcollapsible%3D1%3BmarginBottom%3D0%3BwhiteSpace%3Dwrap%3Bhtml%3D1%3B%22%20vertex%3D%221%22%20parent%3D%221%22%3E%3CmxGeometry%20x%3D%22-534%22%20y%3D%22-220%22%20width%3D%22160%22%20height%3D%2260%22%20as%3D%22geometry%22%2F%3E%3C%2FmxCell%3E%3CmxCell%20id%3D%223%22%20value%3D%22%22%20style%3D%22line%3BstrokeWidth%3D1%3BfillColor%3Dnone%3Balign%3Dleft%3BverticalAlign%3Dmiddle%3BspacingTop%3D-1%3BspacingLeft%3D3%3BspacingRight%3D3%3Brotatable%3D0%3BlabelPosition%3Dright%3Bpoints%3D%5B%5D%3BportConstraint%3Deastwest%3BstrokeColor%3Dinherit%3B%22%20vertex%3D%221%22%20parent%3D%222%22%3E%3CmxGeometry%20y%3D%2226%22%20width%3D%22160%22%20height%3D%228%22%20as%3D%22geometry%22%2F%3E%3C%2FmxCell%3E%3CmxCell%20id%3D%224%22%20value%3D%22%2B%20tickAction(ActionEvent%20e)%22%20style%3D%22text%3BstrokeColor%3Dnone%3BfillColor%3Dnone%3Balign%3Dleft%3BverticalAlign%3Dtop%3BspacingLeft%3D4%3BspacingRight%3D4%3Boverflow%3Dhidden%3Brotatable%3D0%3Bpoints%3D%5B%5B0%2C0.5%5D%2C%5B1%2C0.5%5D%5D%3BportConstraint%3Deastwest%3BwhiteSpace%3Dwrap%3Bhtml%3D1%3B%22%20vertex%3D%221%22%20parent%3D%222%22%3E%3CmxGeometry%20y%3D%2234%22%20width%3D%22160%22%20height%3D%2226%22%20as%3D%22geometry%22%2F%3E%3C%2FmxCell%3E%3C%2Froot%3E%3C%2FmxGraphModel%3E&lt;/span&gt;&lt;/div&gt;" style="text;strokeColor=none;fillColor=none;align=left;verticalAlign=top;spacingLeft=4;spacingRight=4;overflow=hidden;rotatable=0;points=[[0,0.5],[1,0.5]];portConstraint=eastwest;whiteSpace=wrap;html=1;" vertex="1" parent="eROQJaaDopx0TfyOYrIg-100">
          <mxGeometry y="34" width="204" height="46" as="geometry" />
        </mxCell>
        <mxCell id="eROQJaaDopx0TfyOYrIg-103" value="" style="endArrow=open;endSize=12;dashed=1;html=1;rounded=0;entryX=0.389;entryY=0.006;entryDx=0;entryDy=0;exitX=0.761;exitY=1.009;exitDx=0;exitDy=0;entryPerimeter=0;exitPerimeter=0;" edge="1" parent="1" source="eROQJaaDopx0TfyOYrIg-33" target="eROQJaaDopx0TfyOYrIg-100">
          <mxGeometry width="160" relative="1" as="geometry">
            <mxPoint x="526" y="-390" as="sourcePoint" />
            <mxPoint x="362" y="40" as="targetPoint" />
          </mxGeometry>
        </mxCell>
      </root>
    </mxGraphModel>
  </diagram>
</mxfile>
